<?xml version="1.0" encoding="utf-8" standalone="no"?>
<!DOCTYPE svg PUBLIC "-//W3C//DTD SVG 1.1//EN"
  "http://www.w3.org/Graphics/SVG/1.1/DTD/svg11.dtd">
<svg xmlns:xlink="http://www.w3.org/1999/xlink" width="332.987723pt" height="331.860804pt" viewBox="0 0 332.987723 331.860804" xmlns="http://www.w3.org/2000/svg" version="1.1">
 <metadata>
  <rdf:RDF xmlns:dc="http://purl.org/dc/elements/1.1/" xmlns:cc="http://creativecommons.org/ns#" xmlns:rdf="http://www.w3.org/1999/02/22-rdf-syntax-ns#">
   <cc:Work>
    <dc:type rdf:resource="http://purl.org/dc/dcmitype/StillImage"/>
    <dc:date>2024-08-08T12:11:46.850356</dc:date>
    <dc:format>image/svg+xml</dc:format>
    <dc:creator>
     <cc:Agent>
      <dc:title>Matplotlib v3.8.2, https://matplotlib.org/</dc:title>
     </cc:Agent>
    </dc:creator>
   </cc:Work>
  </rdf:RDF>
 </metadata>
 <defs>
  <style type="text/css">*{stroke-linejoin: round; stroke-linecap: butt}</style>
 </defs>
 <g id="figure_1">
  <g id="patch_1">
   <path d="M 0 331.860804 
L 332.987723 331.860804 
L 332.987723 0 
L 0 0 
z
" style="fill: #ffffff"/>
  </g>
  <g id="axes_1">
   <g id="patch_2">
    <path d="M 70.78573 287.051515 
L 321.88573 287.051515 
L 321.88573 26.483515 
L 70.78573 26.483515 
z
" style="fill: #ffffff"/>
   </g>
   <g id="matplotlib.axis_1">
    <g id="xtick_1">
     <g id="line2d_1">
      <defs>
       <path id="m205096215d" d="M 0 0 
L 0 -3.5 
" style="stroke: #000000; stroke-width: 0.8"/>
      </defs>
      <g>
       <use xlink:href="#m205096215d" x="109.314301" y="287.051515" style="stroke: #000000; stroke-width: 0.8"/>
      </g>
     </g>
     <g id="line2d_2">
      <defs>
       <path id="m751acaaec6" d="M 0 0 
L 0 3.5 
" style="stroke: #000000; stroke-width: 0.8"/>
      </defs>
      <g>
       <use xlink:href="#m751acaaec6" x="109.314301" y="26.483515" style="stroke: #000000; stroke-width: 0.8"/>
      </g>
     </g>
     <g id="text_1">
      <!-- $\mathdefault{1}$ -->
      <g transform="translate(105.412307 301.621103) scale(0.16 -0.16)">
       <defs>
        <path id="CMR17-31" d="M 1702 4058 
C 1702 4192 1696 4192 1606 4192 
C 1357 3916 979 3827 621 3827 
C 602 3827 570 3827 563 3808 
C 557 3795 557 3782 557 3648 
C 755 3648 1088 3686 1344 3839 
L 1344 461 
C 1344 236 1331 160 781 160 
L 589 160 
L 589 0 
C 896 0 1216 0 1523 0 
C 1830 0 2150 0 2458 0 
L 2458 160 
L 2266 160 
C 1715 160 1702 230 1702 458 
L 1702 4058 
z
" transform="scale(0.015625)"/>
       </defs>
       <use xlink:href="#CMR17-31" transform="scale(0.996264)"/>
      </g>
     </g>
    </g>
    <g id="xtick_2">
     <g id="line2d_3">
      <g>
       <use xlink:href="#m205096215d" x="162.457158" y="287.051515" style="stroke: #000000; stroke-width: 0.8"/>
      </g>
     </g>
     <g id="line2d_4">
      <g>
       <use xlink:href="#m751acaaec6" x="162.457158" y="26.483515" style="stroke: #000000; stroke-width: 0.8"/>
      </g>
     </g>
     <g id="text_2">
      <!-- $\mathdefault{2}$ -->
      <g transform="translate(158.555165 301.621103) scale(0.16 -0.16)">
       <defs>
        <path id="CMR17-32" d="M 2669 989 
L 2554 989 
C 2490 536 2438 459 2413 420 
C 2381 369 1920 369 1830 369 
L 602 369 
C 832 619 1280 1072 1824 1597 
C 2214 1967 2669 2402 2669 3035 
C 2669 3790 2067 4224 1395 4224 
C 691 4224 262 3604 262 3030 
C 262 2780 448 2748 525 2748 
C 589 2748 781 2787 781 3010 
C 781 3207 614 3264 525 3264 
C 486 3264 448 3258 422 3245 
C 544 3790 915 4058 1306 4058 
C 1862 4058 2227 3617 2227 3035 
C 2227 2479 1901 2000 1536 1584 
L 262 146 
L 262 0 
L 2515 0 
L 2669 989 
z
" transform="scale(0.015625)"/>
       </defs>
       <use xlink:href="#CMR17-32" transform="scale(0.996264)"/>
      </g>
     </g>
    </g>
    <g id="xtick_3">
     <g id="line2d_5">
      <g>
       <use xlink:href="#m205096215d" x="215.600015" y="287.051515" style="stroke: #000000; stroke-width: 0.8"/>
      </g>
     </g>
     <g id="line2d_6">
      <g>
       <use xlink:href="#m751acaaec6" x="215.600015" y="26.483515" style="stroke: #000000; stroke-width: 0.8"/>
      </g>
     </g>
     <g id="text_3">
      <!-- $\mathdefault{3}$ -->
      <g transform="translate(211.698022 301.621103) scale(0.16 -0.16)">
       <defs>
        <path id="CMR17-33" d="M 1414 2157 
C 1984 2157 2234 1662 2234 1090 
C 2234 320 1824 25 1453 25 
C 1114 25 563 194 390 693 
C 422 680 454 680 486 680 
C 640 680 755 782 755 948 
C 755 1133 614 1216 486 1216 
C 378 1216 211 1165 211 926 
C 211 335 787 -128 1466 -128 
C 2176 -128 2720 430 2720 1085 
C 2720 1707 2208 2157 1600 2227 
C 2086 2328 2554 2756 2554 3329 
C 2554 3820 2048 4179 1472 4179 
C 890 4179 378 3829 378 3329 
C 378 3110 544 3072 627 3072 
C 762 3072 877 3155 877 3321 
C 877 3486 762 3569 627 3569 
C 602 3569 570 3569 544 3557 
C 730 3959 1235 4032 1459 4032 
C 1683 4032 2106 3925 2106 3320 
C 2106 3143 2080 2828 1862 2550 
C 1670 2304 1453 2304 1242 2284 
C 1210 2284 1062 2269 1037 2269 
C 992 2263 966 2257 966 2208 
C 966 2163 973 2157 1101 2157 
L 1414 2157 
z
" transform="scale(0.015625)"/>
       </defs>
       <use xlink:href="#CMR17-33" transform="scale(0.996264)"/>
      </g>
     </g>
    </g>
    <g id="xtick_4">
     <g id="line2d_7">
      <g>
       <use xlink:href="#m205096215d" x="268.742872" y="287.051515" style="stroke: #000000; stroke-width: 0.8"/>
      </g>
     </g>
     <g id="line2d_8">
      <g>
       <use xlink:href="#m751acaaec6" x="268.742872" y="26.483515" style="stroke: #000000; stroke-width: 0.8"/>
      </g>
     </g>
     <g id="text_4">
      <!-- $\mathdefault{4}$ -->
      <g transform="translate(264.840879 301.621103) scale(0.16 -0.16)">
       <defs>
        <path id="CMR17-34" d="M 2150 4122 
C 2150 4256 2144 4256 2029 4256 
L 128 1254 
L 128 1088 
L 1779 1088 
L 1779 457 
C 1779 224 1766 160 1318 160 
L 1197 160 
L 1197 0 
C 1402 0 1747 0 1965 0 
C 2182 0 2528 0 2733 0 
L 2733 160 
L 2611 160 
C 2163 160 2150 224 2150 457 
L 2150 1088 
L 2803 1088 
L 2803 1254 
L 2150 1254 
L 2150 4122 
z
M 1798 3703 
L 1798 1254 
L 256 1254 
L 1798 3703 
z
" transform="scale(0.015625)"/>
       </defs>
       <use xlink:href="#CMR17-34" transform="scale(0.996264)"/>
      </g>
     </g>
    </g>
    <g id="xtick_5">
     <g id="line2d_9">
      <g>
       <use xlink:href="#m205096215d" x="321.88573" y="287.051515" style="stroke: #000000; stroke-width: 0.8"/>
      </g>
     </g>
     <g id="line2d_10">
      <g>
       <use xlink:href="#m751acaaec6" x="321.88573" y="26.483515" style="stroke: #000000; stroke-width: 0.8"/>
      </g>
     </g>
     <g id="text_5">
      <!-- $\mathdefault{5}$ -->
      <g transform="translate(317.983736 301.621103) scale(0.16 -0.16)">
       <defs>
        <path id="CMR17-35" d="M 730 3692 
C 794 3666 1056 3584 1325 3584 
C 1920 3584 2246 3911 2432 4100 
C 2432 4157 2432 4192 2394 4192 
C 2387 4192 2374 4192 2323 4163 
C 2099 4058 1837 3973 1517 3973 
C 1325 3973 1037 3999 723 4139 
C 653 4171 640 4171 634 4171 
C 602 4171 595 4164 595 4037 
L 595 2203 
C 595 2089 595 2057 659 2057 
C 691 2057 704 2070 736 2114 
C 941 2401 1222 2522 1542 2522 
C 1766 2522 2246 2382 2246 1289 
C 2246 1085 2246 715 2054 421 
C 1894 159 1645 25 1370 25 
C 947 25 518 320 403 814 
C 429 807 480 795 506 795 
C 589 795 749 840 749 1038 
C 749 1210 627 1280 506 1280 
C 358 1280 262 1190 262 1011 
C 262 454 704 -128 1382 -128 
C 2042 -128 2669 440 2669 1264 
C 2669 2030 2170 2624 1549 2624 
C 1222 2624 947 2503 730 2274 
L 730 3692 
z
" transform="scale(0.015625)"/>
       </defs>
       <use xlink:href="#CMR17-35" transform="scale(0.996264)"/>
      </g>
     </g>
    </g>
    <g id="xtick_6">
     <g id="line2d_11">
      <defs>
       <path id="mbf23a80412" d="M 0 0 
L 0 2 
" style="stroke: #000000; stroke-width: 0.6"/>
      </defs>
      <g>
       <use xlink:href="#mbf23a80412" x="77.428587" y="287.051515" style="stroke: #000000; stroke-width: 0.6"/>
      </g>
     </g>
    </g>
    <g id="xtick_7">
     <g id="line2d_12">
      <g>
       <use xlink:href="#mbf23a80412" x="88.057158" y="287.051515" style="stroke: #000000; stroke-width: 0.6"/>
      </g>
     </g>
    </g>
    <g id="xtick_8">
     <g id="line2d_13">
      <g>
       <use xlink:href="#mbf23a80412" x="98.68573" y="287.051515" style="stroke: #000000; stroke-width: 0.6"/>
      </g>
     </g>
    </g>
    <g id="xtick_9">
     <g id="line2d_14">
      <g>
       <use xlink:href="#mbf23a80412" x="119.942872" y="287.051515" style="stroke: #000000; stroke-width: 0.6"/>
      </g>
     </g>
    </g>
    <g id="xtick_10">
     <g id="line2d_15">
      <g>
       <use xlink:href="#mbf23a80412" x="130.571444" y="287.051515" style="stroke: #000000; stroke-width: 0.6"/>
      </g>
     </g>
    </g>
    <g id="xtick_11">
     <g id="line2d_16">
      <g>
       <use xlink:href="#mbf23a80412" x="141.200015" y="287.051515" style="stroke: #000000; stroke-width: 0.6"/>
      </g>
     </g>
    </g>
    <g id="xtick_12">
     <g id="line2d_17">
      <g>
       <use xlink:href="#mbf23a80412" x="151.828587" y="287.051515" style="stroke: #000000; stroke-width: 0.6"/>
      </g>
     </g>
    </g>
    <g id="xtick_13">
     <g id="line2d_18">
      <g>
       <use xlink:href="#mbf23a80412" x="173.08573" y="287.051515" style="stroke: #000000; stroke-width: 0.6"/>
      </g>
     </g>
    </g>
    <g id="xtick_14">
     <g id="line2d_19">
      <g>
       <use xlink:href="#mbf23a80412" x="183.714301" y="287.051515" style="stroke: #000000; stroke-width: 0.6"/>
      </g>
     </g>
    </g>
    <g id="xtick_15">
     <g id="line2d_20">
      <g>
       <use xlink:href="#mbf23a80412" x="194.342872" y="287.051515" style="stroke: #000000; stroke-width: 0.6"/>
      </g>
     </g>
    </g>
    <g id="xtick_16">
     <g id="line2d_21">
      <g>
       <use xlink:href="#mbf23a80412" x="204.971444" y="287.051515" style="stroke: #000000; stroke-width: 0.6"/>
      </g>
     </g>
    </g>
    <g id="xtick_17">
     <g id="line2d_22">
      <g>
       <use xlink:href="#mbf23a80412" x="226.228587" y="287.051515" style="stroke: #000000; stroke-width: 0.6"/>
      </g>
     </g>
    </g>
    <g id="xtick_18">
     <g id="line2d_23">
      <g>
       <use xlink:href="#mbf23a80412" x="236.857158" y="287.051515" style="stroke: #000000; stroke-width: 0.6"/>
      </g>
     </g>
    </g>
    <g id="xtick_19">
     <g id="line2d_24">
      <g>
       <use xlink:href="#mbf23a80412" x="247.48573" y="287.051515" style="stroke: #000000; stroke-width: 0.6"/>
      </g>
     </g>
    </g>
    <g id="xtick_20">
     <g id="line2d_25">
      <g>
       <use xlink:href="#mbf23a80412" x="258.114301" y="287.051515" style="stroke: #000000; stroke-width: 0.6"/>
      </g>
     </g>
    </g>
    <g id="xtick_21">
     <g id="line2d_26">
      <g>
       <use xlink:href="#mbf23a80412" x="279.371444" y="287.051515" style="stroke: #000000; stroke-width: 0.6"/>
      </g>
     </g>
    </g>
    <g id="xtick_22">
     <g id="line2d_27">
      <g>
       <use xlink:href="#mbf23a80412" x="290.000015" y="287.051515" style="stroke: #000000; stroke-width: 0.6"/>
      </g>
     </g>
    </g>
    <g id="xtick_23">
     <g id="line2d_28">
      <g>
       <use xlink:href="#mbf23a80412" x="300.628587" y="287.051515" style="stroke: #000000; stroke-width: 0.6"/>
      </g>
     </g>
    </g>
    <g id="xtick_24">
     <g id="line2d_29">
      <g>
       <use xlink:href="#mbf23a80412" x="311.257158" y="287.051515" style="stroke: #000000; stroke-width: 0.6"/>
      </g>
     </g>
    </g>
    <g id="text_6">
     <!-- Bond Distance (Bohr) -->
     <g transform="translate(124.30295 320.675748) scale(0.16 -0.16)">
      <defs>
       <path id="CMSS17-42" d="M 570 4416 
L 570 0 
L 2163 0 
C 3034 0 3667 574 3667 1200 
C 3667 1685 3251 2176 2502 2317 
C 3334 2558 3501 3040 3501 3313 
C 3501 3883 2874 4416 1997 4416 
L 570 4416 
z
M 1088 2496 
L 1088 4059 
L 1824 4059 
C 2483 4059 3002 3724 3002 3306 
C 3002 2926 2592 2496 1766 2496 
L 1088 2496 
z
M 1088 357 
L 1088 2107 
L 1939 2107 
C 2630 2107 3162 1679 3162 1206 
C 3162 772 2694 357 1984 357 
L 1088 357 
z
" transform="scale(0.015625)"/>
       <path id="CMSS17-6f" d="M 2829 1356 
C 2829 2176 2221 2816 1504 2816 
C 768 2816 173 2157 173 1356 
C 173 544 787 -64 1498 -64 
C 2227 -64 2829 563 2829 1356 
z
M 1504 337 
C 1050 337 659 709 659 1408 
C 659 2151 1114 2427 1498 2427 
C 1914 2427 2342 2126 2342 1408 
C 2342 683 1926 337 1504 337 
z
" transform="scale(0.015625)"/>
       <path id="CMSS17-6e" d="M 2618 1877 
C 2618 2283 2522 2816 1798 2816 
C 1389 2816 1120 2606 941 2389 
L 941 2758 
L 474 2758 
L 474 0 
L 960 0 
L 960 1559 
C 960 1964 1114 2428 1549 2428 
C 2112 2428 2131 2048 2131 1829 
L 2131 0 
L 2618 0 
L 2618 1877 
z
" transform="scale(0.015625)"/>
       <path id="CMSS17-64" d="M 2611 4416 
L 2138 4416 
L 2138 2438 
C 1939 2603 1613 2756 1254 2756 
C 672 2756 211 2131 211 1347 
C 211 562 666 -64 1235 -64 
C 1677 -64 1971 172 2125 306 
L 2125 -13 
L 2611 -13 
L 2611 4416 
z
M 2125 836 
C 2125 747 2125 653 1926 482 
C 1798 375 1645 325 1498 325 
C 1152 325 698 576 698 1340 
C 698 2134 1210 2368 1562 2368 
C 1798 2368 1990 2254 2125 2065 
L 2125 836 
z
" transform="scale(0.015625)"/>
       <path id="CMSS17-44" d="M 570 4416 
L 570 0 
L 2144 0 
C 3194 0 4000 980 4000 2170 
C 4000 3398 3194 4416 2144 4416 
L 570 4416 
z
M 1094 357 
L 1094 4059 
L 2003 4059 
C 2861 4059 3475 3277 3475 2170 
C 3475 1107 2867 357 2003 357 
L 1094 357 
z
" transform="scale(0.015625)"/>
       <path id="CMSS17-69" d="M 979 4183 
L 442 4183 
L 442 3648 
L 979 3648 
L 979 4183 
z
M 947 2739 
L 474 2739 
L 474 0 
L 947 0 
L 947 2739 
z
" transform="scale(0.015625)"/>
       <path id="CMSS17-73" d="M 2061 2627 
C 1683 2807 1389 2807 1197 2807 
C 742 2807 198 2648 198 2003 
C 198 1359 902 1218 1094 1179 
C 1389 1122 1715 1058 1715 740 
C 1715 337 1254 337 1171 337 
C 915 337 563 407 243 638 
L 166 210 
C 531 0 883 -64 1178 -64 
C 1965 -64 2163 416 2163 781 
C 2163 1094 1984 1305 1862 1401 
C 1651 1568 1574 1587 1050 1696 
C 960 1709 646 1779 646 2066 
C 646 2432 1050 2432 1139 2432 
C 1555 2432 1811 2303 1984 2208 
L 2061 2627 
z
" transform="scale(0.015625)"/>
       <path id="CMSS17-74" d="M 1069 2368 
L 1901 2368 
L 1901 2737 
L 1069 2737 
L 1069 3520 
L 614 3520 
L 614 2737 
L 109 2737 
L 109 2368 
L 602 2368 
L 602 749 
C 602 384 685 -64 1107 -64 
C 1427 -64 1722 25 2003 172 
L 1901 548 
C 1747 414 1562 337 1363 337 
C 1082 337 1069 696 1069 856 
L 1069 2368 
z
" transform="scale(0.015625)"/>
       <path id="CMSS17-61" d="M 2406 1791 
C 2406 2392 1978 2808 1402 2808 
C 1120 2808 813 2757 461 2553 
L 499 2135 
C 659 2248 934 2432 1395 2432 
C 1722 2432 1920 2180 1920 1782 
L 1920 1536 
C 896 1536 256 1238 256 726 
C 256 461 416 -64 947 -64 
C 1043 -64 1562 -64 1933 217 
L 1933 -19 
L 2406 -19 
L 2406 1791 
z
M 1920 816 
C 1920 701 1920 548 1728 434 
C 1562 325 1350 325 1261 325 
C 941 325 723 511 723 744 
C 723 1211 1722 1211 1920 1211 
L 1920 816 
z
" transform="scale(0.015625)"/>
       <path id="CMSS17-63" d="M 2464 2541 
C 2464 2585 2170 2714 2093 2739 
C 1882 2816 1613 2816 1542 2816 
C 710 2816 211 2093 211 1363 
C 211 595 768 -64 1517 -64 
C 1946 -64 2253 76 2502 242 
L 2464 664 
C 2189 453 1869 337 1523 337 
C 1024 337 698 774 698 1369 
C 698 1831 909 2414 1549 2414 
C 1901 2414 2099 2343 2394 2145 
L 2464 2541 
z
" transform="scale(0.015625)"/>
       <path id="CMSS17-65" d="M 2502 1377 
C 2502 1590 2490 2003 2285 2345 
C 2061 2713 1696 2816 1421 2816 
C 755 2816 192 2188 192 1375 
C 192 582 774 -64 1510 -64 
C 1798 -64 2150 19 2470 248 
C 2470 274 2458 414 2451 420 
C 2451 433 2432 630 2432 656 
C 2125 407 1773 325 1517 325 
C 1107 325 666 667 646 1377 
L 2502 1377 
z
M 698 1728 
C 781 2084 1062 2421 1421 2421 
C 1517 2421 1965 2421 2080 1728 
L 698 1728 
z
" transform="scale(0.015625)"/>
       <path id="CMSS17-28" d="M 1613 4768 
C 1267 4417 474 3601 474 1588 
C 474 -433 1267 -1243 1613 -1600 
L 2003 -1600 
C 1216 -784 960 357 960 1581 
C 960 2798 1203 3946 2003 4768 
L 1613 4768 
z
" transform="scale(0.015625)"/>
       <path id="CMSS17-68" d="M 2618 1891 
C 2618 2292 2522 2820 1798 2820 
C 1395 2820 1133 2623 947 2407 
L 947 4448 
L 474 4448 
L 474 32 
L 960 32 
L 960 1573 
C 960 1973 1114 2432 1549 2432 
C 2112 2432 2131 2056 2131 1839 
L 2131 32 
L 2618 32 
L 2618 1891 
z
" transform="scale(0.015625)"/>
       <path id="CMSS17-72" d="M 954 1363 
C 954 1965 1395 2368 1958 2368 
L 1958 2789 
C 1549 2789 1165 2585 934 2253 
L 934 2758 
L 480 2758 
L 480 0 
L 954 0 
L 954 1363 
z
" transform="scale(0.015625)"/>
       <path id="CMSS17-29" d="M 723 -1600 
C 1069 -1249 1862 -433 1862 1581 
C 1862 3601 1069 4411 723 4768 
L 333 4768 
C 1120 3952 1376 2811 1376 1588 
C 1376 370 1133 -778 333 -1600 
L 723 -1600 
z
" transform="scale(0.015625)"/>
      </defs>
      <use xlink:href="#CMSS17-42" transform="scale(0.996264)"/>
      <use xlink:href="#CMSS17-6f" transform="translate(62.33804 0) scale(0.996264)"/>
      <use xlink:href="#CMSS17-6e" transform="translate(109.181664 0) scale(0.996264)"/>
      <use xlink:href="#CMSS17-64" transform="translate(157.386607 0) scale(0.996264)"/>
      <use xlink:href="#CMSS17-44" transform="translate(236.820663 0) scale(0.996264)"/>
      <use xlink:href="#CMSS17-69" transform="translate(304.363504 0) scale(0.996264)"/>
      <use xlink:href="#CMSS17-73" transform="translate(326.544227 0) scale(0.996264)"/>
      <use xlink:href="#CMSS17-74" transform="translate(362.457769 0) scale(0.996264)"/>
      <use xlink:href="#CMSS17-61" transform="translate(396.289336 0) scale(0.996264)"/>
      <use xlink:href="#CMSS17-6e" transform="translate(441.211257 0) scale(0.996264)"/>
      <use xlink:href="#CMSS17-63" transform="translate(489.4162 0) scale(0.996264)"/>
      <use xlink:href="#CMSS17-65" transform="translate(531.055022 0) scale(0.996264)"/>
      <use xlink:href="#CMSS17-28" transform="translate(603.922957 0) scale(0.996264)"/>
      <use xlink:href="#CMSS17-42" transform="translate(640.356871 0) scale(0.996264)"/>
      <use xlink:href="#CMSS17-6f" transform="translate(702.694911 0) scale(0.996264)"/>
      <use xlink:href="#CMSS17-68" transform="translate(749.538535 0) scale(0.996264)"/>
      <use xlink:href="#CMSS17-72" transform="translate(797.743478 0) scale(0.996264)"/>
      <use xlink:href="#CMSS17-29" transform="translate(829.65325 0) scale(0.996264)"/>
     </g>
    </g>
   </g>
   <g id="matplotlib.axis_2">
    <g id="ytick_1">
     <g id="line2d_30">
      <defs>
       <path id="mf0828bfaef" d="M 0 0 
L 3.5 0 
" style="stroke: #000000; stroke-width: 0.8"/>
      </defs>
      <g>
       <use xlink:href="#mf0828bfaef" x="70.78573" y="254.236152" style="stroke: #000000; stroke-width: 0.8"/>
      </g>
     </g>
     <g id="line2d_31">
      <defs>
       <path id="m43fa6551b3" d="M 0 0 
L -3.5 0 
" style="stroke: #000000; stroke-width: 0.8"/>
      </defs>
      <g>
       <use xlink:href="#m43fa6551b3" x="321.88573" y="254.236152" style="stroke: #000000; stroke-width: 0.8"/>
      </g>
     </g>
     <g id="text_7">
      <!-- $\mathdefault{−3.50}$ -->
      <g transform="translate(27.140224 259.770946) scale(0.16 -0.16)">
       <defs>
        <path id="CMSY10-0" d="M 4218 1472 
C 4326 1472 4442 1472 4442 1600 
C 4442 1728 4326 1728 4218 1728 
L 755 1728 
C 646 1728 531 1728 531 1600 
C 531 1472 646 1472 755 1472 
L 4218 1472 
z
" transform="scale(0.015625)"/>
        <path id="CMMI12-3a" d="M 1178 307 
C 1178 492 1024 619 870 619 
C 685 619 557 466 557 313 
C 557 128 710 0 864 0 
C 1050 0 1178 153 1178 307 
z
" transform="scale(0.015625)"/>
        <path id="CMR17-30" d="M 2688 2025 
C 2688 2416 2682 3080 2413 3591 
C 2176 4039 1798 4198 1466 4198 
C 1158 4198 768 4058 525 3597 
C 269 3118 243 2524 243 2025 
C 243 1661 250 1106 448 619 
C 723 -39 1216 -128 1466 -128 
C 1760 -128 2208 -7 2470 600 
C 2662 1042 2688 1559 2688 2025 
z
M 1466 -26 
C 1056 -26 813 325 723 812 
C 653 1188 653 1738 653 2096 
C 653 2588 653 2997 736 3387 
C 858 3929 1216 4096 1466 4096 
C 1728 4096 2067 3923 2189 3400 
C 2272 3036 2278 2607 2278 2096 
C 2278 1680 2278 1169 2202 792 
C 2067 95 1690 -26 1466 -26 
z
" transform="scale(0.015625)"/>
       </defs>
       <use xlink:href="#CMSY10-0" transform="scale(0.996264)"/>
       <use xlink:href="#CMR17-33" transform="translate(77.487468 0) scale(0.996264)"/>
       <use xlink:href="#CMMI12-3a" transform="translate(123.177945 0) scale(0.996264)"/>
       <use xlink:href="#CMR17-35" transform="translate(150.275122 0) scale(0.996264)"/>
       <use xlink:href="#CMR17-30" transform="translate(195.965599 0) scale(0.996264)"/>
      </g>
     </g>
    </g>
    <g id="ytick_2">
     <g id="line2d_32">
      <g>
       <use xlink:href="#mf0828bfaef" x="70.78573" y="216.277379" style="stroke: #000000; stroke-width: 0.8"/>
      </g>
     </g>
     <g id="line2d_33">
      <g>
       <use xlink:href="#m43fa6551b3" x="321.88573" y="216.277379" style="stroke: #000000; stroke-width: 0.8"/>
      </g>
     </g>
     <g id="text_8">
      <!-- $\mathdefault{−3.25}$ -->
      <g transform="translate(27.140224 221.812173) scale(0.16 -0.16)">
       <use xlink:href="#CMSY10-0" transform="scale(0.996264)"/>
       <use xlink:href="#CMR17-33" transform="translate(77.487468 0) scale(0.996264)"/>
       <use xlink:href="#CMMI12-3a" transform="translate(123.177945 0) scale(0.996264)"/>
       <use xlink:href="#CMR17-32" transform="translate(150.275122 0) scale(0.996264)"/>
       <use xlink:href="#CMR17-35" transform="translate(195.965599 0) scale(0.996264)"/>
      </g>
     </g>
    </g>
    <g id="ytick_3">
     <g id="line2d_34">
      <g>
       <use xlink:href="#mf0828bfaef" x="70.78573" y="178.318606" style="stroke: #000000; stroke-width: 0.8"/>
      </g>
     </g>
     <g id="line2d_35">
      <g>
       <use xlink:href="#m43fa6551b3" x="321.88573" y="178.318606" style="stroke: #000000; stroke-width: 0.8"/>
      </g>
     </g>
     <g id="text_9">
      <!-- $\mathdefault{−3.00}$ -->
      <g transform="translate(27.140224 183.8534) scale(0.16 -0.16)">
       <use xlink:href="#CMSY10-0" transform="scale(0.996264)"/>
       <use xlink:href="#CMR17-33" transform="translate(77.487468 0) scale(0.996264)"/>
       <use xlink:href="#CMMI12-3a" transform="translate(123.177945 0) scale(0.996264)"/>
       <use xlink:href="#CMR17-30" transform="translate(150.275122 0) scale(0.996264)"/>
       <use xlink:href="#CMR17-30" transform="translate(195.965599 0) scale(0.996264)"/>
      </g>
     </g>
    </g>
    <g id="ytick_4">
     <g id="line2d_36">
      <g>
       <use xlink:href="#mf0828bfaef" x="70.78573" y="140.359834" style="stroke: #000000; stroke-width: 0.8"/>
      </g>
     </g>
     <g id="line2d_37">
      <g>
       <use xlink:href="#m43fa6551b3" x="321.88573" y="140.359834" style="stroke: #000000; stroke-width: 0.8"/>
      </g>
     </g>
     <g id="text_10">
      <!-- $\mathdefault{−2.75}$ -->
      <g transform="translate(27.140224 145.894628) scale(0.16 -0.16)">
       <defs>
        <path id="CMR17-37" d="M 2886 3941 
L 2886 4081 
L 1382 4081 
C 634 4081 621 4165 595 4288 
L 480 4288 
L 294 3094 
L 410 3094 
C 429 3215 474 3540 550 3661 
C 589 3712 1062 3712 1171 3712 
L 2579 3712 
L 1869 2661 
C 1395 1954 1069 999 1069 165 
C 1069 89 1069 -128 1299 -128 
C 1530 -128 1530 89 1530 171 
L 1530 465 
C 1530 1508 1709 2196 2003 2636 
L 2886 3941 
z
" transform="scale(0.015625)"/>
       </defs>
       <use xlink:href="#CMSY10-0" transform="scale(0.996264)"/>
       <use xlink:href="#CMR17-32" transform="translate(77.487468 0) scale(0.996264)"/>
       <use xlink:href="#CMMI12-3a" transform="translate(123.177945 0) scale(0.996264)"/>
       <use xlink:href="#CMR17-37" transform="translate(150.275122 0) scale(0.996264)"/>
       <use xlink:href="#CMR17-35" transform="translate(195.965599 0) scale(0.996264)"/>
      </g>
     </g>
    </g>
    <g id="ytick_5">
     <g id="line2d_38">
      <g>
       <use xlink:href="#mf0828bfaef" x="70.78573" y="102.401061" style="stroke: #000000; stroke-width: 0.8"/>
      </g>
     </g>
     <g id="line2d_39">
      <g>
       <use xlink:href="#m43fa6551b3" x="321.88573" y="102.401061" style="stroke: #000000; stroke-width: 0.8"/>
      </g>
     </g>
     <g id="text_11">
      <!-- $\mathdefault{−2.50}$ -->
      <g transform="translate(27.140224 107.935855) scale(0.16 -0.16)">
       <use xlink:href="#CMSY10-0" transform="scale(0.996264)"/>
       <use xlink:href="#CMR17-32" transform="translate(77.487468 0) scale(0.996264)"/>
       <use xlink:href="#CMMI12-3a" transform="translate(123.177945 0) scale(0.996264)"/>
       <use xlink:href="#CMR17-35" transform="translate(150.275122 0) scale(0.996264)"/>
       <use xlink:href="#CMR17-30" transform="translate(195.965599 0) scale(0.996264)"/>
      </g>
     </g>
    </g>
    <g id="ytick_6">
     <g id="line2d_40">
      <g>
       <use xlink:href="#mf0828bfaef" x="70.78573" y="64.442288" style="stroke: #000000; stroke-width: 0.8"/>
      </g>
     </g>
     <g id="line2d_41">
      <g>
       <use xlink:href="#m43fa6551b3" x="321.88573" y="64.442288" style="stroke: #000000; stroke-width: 0.8"/>
      </g>
     </g>
     <g id="text_12">
      <!-- $\mathdefault{−2.25}$ -->
      <g transform="translate(27.140224 69.977082) scale(0.16 -0.16)">
       <use xlink:href="#CMSY10-0" transform="scale(0.996264)"/>
       <use xlink:href="#CMR17-32" transform="translate(77.487468 0) scale(0.996264)"/>
       <use xlink:href="#CMMI12-3a" transform="translate(123.177945 0) scale(0.996264)"/>
       <use xlink:href="#CMR17-32" transform="translate(150.275122 0) scale(0.996264)"/>
       <use xlink:href="#CMR17-35" transform="translate(195.965599 0) scale(0.996264)"/>
      </g>
     </g>
    </g>
    <g id="ytick_7">
     <g id="line2d_42">
      <g>
       <use xlink:href="#mf0828bfaef" x="70.78573" y="26.483515" style="stroke: #000000; stroke-width: 0.8"/>
      </g>
     </g>
     <g id="line2d_43">
      <g>
       <use xlink:href="#m43fa6551b3" x="321.88573" y="26.483515" style="stroke: #000000; stroke-width: 0.8"/>
      </g>
     </g>
     <g id="text_13">
      <!-- $\mathdefault{−2.00}$ -->
      <g transform="translate(27.140224 32.018309) scale(0.16 -0.16)">
       <use xlink:href="#CMSY10-0" transform="scale(0.996264)"/>
       <use xlink:href="#CMR17-32" transform="translate(77.487468 0) scale(0.996264)"/>
       <use xlink:href="#CMMI12-3a" transform="translate(123.177945 0) scale(0.996264)"/>
       <use xlink:href="#CMR17-30" transform="translate(150.275122 0) scale(0.996264)"/>
       <use xlink:href="#CMR17-30" transform="translate(195.965599 0) scale(0.996264)"/>
      </g>
     </g>
    </g>
    <g id="ytick_8">
     <g id="line2d_44">
      <defs>
       <path id="m3e30eacc59" d="M 0 0 
L -2 0 
" style="stroke: #000000; stroke-width: 0.6"/>
      </defs>
      <g>
       <use xlink:href="#m3e30eacc59" x="70.78573" y="284.60317" style="stroke: #000000; stroke-width: 0.6"/>
      </g>
     </g>
    </g>
    <g id="ytick_9">
     <g id="line2d_45">
      <g>
       <use xlink:href="#m3e30eacc59" x="70.78573" y="277.011416" style="stroke: #000000; stroke-width: 0.6"/>
      </g>
     </g>
    </g>
    <g id="ytick_10">
     <g id="line2d_46">
      <g>
       <use xlink:href="#m3e30eacc59" x="70.78573" y="269.419661" style="stroke: #000000; stroke-width: 0.6"/>
      </g>
     </g>
    </g>
    <g id="ytick_11">
     <g id="line2d_47">
      <g>
       <use xlink:href="#m3e30eacc59" x="70.78573" y="261.827907" style="stroke: #000000; stroke-width: 0.6"/>
      </g>
     </g>
    </g>
    <g id="ytick_12">
     <g id="line2d_48">
      <g>
       <use xlink:href="#m3e30eacc59" x="70.78573" y="246.644397" style="stroke: #000000; stroke-width: 0.6"/>
      </g>
     </g>
    </g>
    <g id="ytick_13">
     <g id="line2d_49">
      <g>
       <use xlink:href="#m3e30eacc59" x="70.78573" y="239.052643" style="stroke: #000000; stroke-width: 0.6"/>
      </g>
     </g>
    </g>
    <g id="ytick_14">
     <g id="line2d_50">
      <g>
       <use xlink:href="#m3e30eacc59" x="70.78573" y="231.460888" style="stroke: #000000; stroke-width: 0.6"/>
      </g>
     </g>
    </g>
    <g id="ytick_15">
     <g id="line2d_51">
      <g>
       <use xlink:href="#m3e30eacc59" x="70.78573" y="223.869134" style="stroke: #000000; stroke-width: 0.6"/>
      </g>
     </g>
    </g>
    <g id="ytick_16">
     <g id="line2d_52">
      <g>
       <use xlink:href="#m3e30eacc59" x="70.78573" y="208.685625" style="stroke: #000000; stroke-width: 0.6"/>
      </g>
     </g>
    </g>
    <g id="ytick_17">
     <g id="line2d_53">
      <g>
       <use xlink:href="#m3e30eacc59" x="70.78573" y="201.09387" style="stroke: #000000; stroke-width: 0.6"/>
      </g>
     </g>
    </g>
    <g id="ytick_18">
     <g id="line2d_54">
      <g>
       <use xlink:href="#m3e30eacc59" x="70.78573" y="193.502115" style="stroke: #000000; stroke-width: 0.6"/>
      </g>
     </g>
    </g>
    <g id="ytick_19">
     <g id="line2d_55">
      <g>
       <use xlink:href="#m3e30eacc59" x="70.78573" y="185.910361" style="stroke: #000000; stroke-width: 0.6"/>
      </g>
     </g>
    </g>
    <g id="ytick_20">
     <g id="line2d_56">
      <g>
       <use xlink:href="#m3e30eacc59" x="70.78573" y="170.726852" style="stroke: #000000; stroke-width: 0.6"/>
      </g>
     </g>
    </g>
    <g id="ytick_21">
     <g id="line2d_57">
      <g>
       <use xlink:href="#m3e30eacc59" x="70.78573" y="163.135097" style="stroke: #000000; stroke-width: 0.6"/>
      </g>
     </g>
    </g>
    <g id="ytick_22">
     <g id="line2d_58">
      <g>
       <use xlink:href="#m3e30eacc59" x="70.78573" y="155.543343" style="stroke: #000000; stroke-width: 0.6"/>
      </g>
     </g>
    </g>
    <g id="ytick_23">
     <g id="line2d_59">
      <g>
       <use xlink:href="#m3e30eacc59" x="70.78573" y="147.951588" style="stroke: #000000; stroke-width: 0.6"/>
      </g>
     </g>
    </g>
    <g id="ytick_24">
     <g id="line2d_60">
      <g>
       <use xlink:href="#m3e30eacc59" x="70.78573" y="132.768079" style="stroke: #000000; stroke-width: 0.6"/>
      </g>
     </g>
    </g>
    <g id="ytick_25">
     <g id="line2d_61">
      <g>
       <use xlink:href="#m3e30eacc59" x="70.78573" y="125.176324" style="stroke: #000000; stroke-width: 0.6"/>
      </g>
     </g>
    </g>
    <g id="ytick_26">
     <g id="line2d_62">
      <g>
       <use xlink:href="#m3e30eacc59" x="70.78573" y="117.58457" style="stroke: #000000; stroke-width: 0.6"/>
      </g>
     </g>
    </g>
    <g id="ytick_27">
     <g id="line2d_63">
      <g>
       <use xlink:href="#m3e30eacc59" x="70.78573" y="109.992815" style="stroke: #000000; stroke-width: 0.6"/>
      </g>
     </g>
    </g>
    <g id="ytick_28">
     <g id="line2d_64">
      <g>
       <use xlink:href="#m3e30eacc59" x="70.78573" y="94.809306" style="stroke: #000000; stroke-width: 0.6"/>
      </g>
     </g>
    </g>
    <g id="ytick_29">
     <g id="line2d_65">
      <g>
       <use xlink:href="#m3e30eacc59" x="70.78573" y="87.217552" style="stroke: #000000; stroke-width: 0.6"/>
      </g>
     </g>
    </g>
    <g id="ytick_30">
     <g id="line2d_66">
      <g>
       <use xlink:href="#m3e30eacc59" x="70.78573" y="79.625797" style="stroke: #000000; stroke-width: 0.6"/>
      </g>
     </g>
    </g>
    <g id="ytick_31">
     <g id="line2d_67">
      <g>
       <use xlink:href="#m3e30eacc59" x="70.78573" y="72.034042" style="stroke: #000000; stroke-width: 0.6"/>
      </g>
     </g>
    </g>
    <g id="ytick_32">
     <g id="line2d_68">
      <g>
       <use xlink:href="#m3e30eacc59" x="70.78573" y="56.850533" style="stroke: #000000; stroke-width: 0.6"/>
      </g>
     </g>
    </g>
    <g id="ytick_33">
     <g id="line2d_69">
      <g>
       <use xlink:href="#m3e30eacc59" x="70.78573" y="49.258779" style="stroke: #000000; stroke-width: 0.6"/>
      </g>
     </g>
    </g>
    <g id="ytick_34">
     <g id="line2d_70">
      <g>
       <use xlink:href="#m3e30eacc59" x="70.78573" y="41.667024" style="stroke: #000000; stroke-width: 0.6"/>
      </g>
     </g>
    </g>
    <g id="ytick_35">
     <g id="line2d_71">
      <g>
       <use xlink:href="#m3e30eacc59" x="70.78573" y="34.07527" style="stroke: #000000; stroke-width: 0.6"/>
      </g>
     </g>
    </g>
    <g id="text_14">
     <!-- Energy (Ha) -->
     <g transform="translate(19.155168 196.889762) rotate(-90) scale(0.16 -0.16)">
      <defs>
       <path id="CMSS17-45" d="M 1958 433 
C 1446 433 1216 433 1101 433 
L 1101 2107 
L 3085 2107 
L 3085 2496 
L 1101 2496 
L 1101 4009 
L 1926 4009 
C 2003 4009 2080 4009 2157 4009 
L 3251 4009 
L 3251 4416 
L 563 4416 
L 563 0 
L 3334 0 
L 3334 433 
L 1958 433 
z
" transform="scale(0.015625)"/>
       <path id="CMSS17-67" d="M 2848 2808 
C 2483 2808 2170 2738 1914 2617 
C 1702 2777 1485 2808 1338 2808 
C 781 2808 358 2349 358 1814 
C 358 1468 550 1207 563 1195 
C 448 1035 384 863 384 672 
C 384 448 474 289 544 200 
C 211 -3 166 -314 166 -435 
C 166 -898 749 -1280 1498 -1280 
C 2253 -1280 2835 -898 2835 -428 
C 2835 448 1856 448 1587 448 
L 1069 448 
C 973 448 717 448 717 791 
C 717 921 774 1004 781 1010 
C 877 940 1075 832 1338 832 
C 1869 832 2310 1278 2310 1827 
C 2310 2132 2170 2355 2112 2432 
L 2131 2432 
C 2150 2432 2419 2432 2515 2432 
C 2720 2432 2739 2429 2918 2419 
L 2848 2808 
z
M 1338 1182 
C 1120 1182 813 1315 813 1823 
C 813 2375 1165 2464 1331 2464 
C 1549 2464 1856 2331 1856 1823 
C 1856 1271 1504 1182 1338 1182 
z
M 1581 -10 
C 1734 -10 2381 -10 2381 -442 
C 2381 -714 1984 -929 1504 -929 
C 1018 -929 621 -720 621 -435 
C 621 -403 621 -10 1062 -10 
L 1581 -10 
z
" transform="scale(0.015625)"/>
       <path id="CMSS17-79" d="M 2675 2752 
L 2176 2752 
C 1632 1294 1446 702 1434 383 
L 1427 383 
C 1408 696 1126 1460 902 2007 
L 602 2752 
L 83 2752 
L 1216 13 
C 1146 -178 1043 -465 1011 -529 
C 870 -885 774 -885 672 -885 
C 646 -885 442 -885 211 -809 
L 250 -1229 
C 410 -1261 570 -1280 685 -1280 
C 845 -1280 1165 -1280 1459 -497 
L 2675 2752 
z
" transform="scale(0.015625)"/>
       <path id="CMSS17-48" d="M 3674 4416 
L 3136 4416 
L 3136 2501 
L 1101 2501 
L 1101 4416 
L 563 4416 
L 563 0 
L 1101 0 
L 1101 2112 
L 3136 2112 
L 3136 0 
L 3674 0 
L 3674 4416 
z
" transform="scale(0.015625)"/>
      </defs>
      <use xlink:href="#CMSS17-45" transform="scale(0.996264)"/>
      <use xlink:href="#CMSS17-6e" transform="translate(55.892013 0) scale(0.996264)"/>
      <use xlink:href="#CMSS17-65" transform="translate(104.096956 0) scale(0.996264)"/>
      <use xlink:href="#CMSS17-72" transform="translate(145.735778 0) scale(0.996264)"/>
      <use xlink:href="#CMSS17-67" transform="translate(177.645551 0) scale(0.996264)"/>
      <use xlink:href="#CMSS17-79" transform="translate(224.489175 0) scale(0.996264)"/>
      <use xlink:href="#CMSS17-28" transform="translate(298.718429 0) scale(0.996264)"/>
      <use xlink:href="#CMSS17-48" transform="translate(335.152343 0) scale(0.996264)"/>
      <use xlink:href="#CMSS17-61" transform="translate(401.213862 0) scale(0.996264)"/>
      <use xlink:href="#CMSS17-29" transform="translate(446.135783 0) scale(0.996264)"/>
     </g>
    </g>
   </g>
   <g id="line2d_72">
    <path d="M 90.89235 -1 
L 92.308587 23.67104 
L 93.902872 48.313416 
L 95.497158 70.106762 
L 97.091444 89.412788 
L 98.68573 106.53809 
L 100.280015 121.74437 
L 101.874301 135.256469 
L 103.468587 147.268714 
L 105.062872 157.949964 
L 106.657158 167.447643 
L 108.251444 175.890992 
L 109.84573 183.393711 
L 111.440015 190.056124 
L 113.034301 195.966974 
L 114.628587 201.204926 
L 116.222872 205.839834 
L 117.817158 209.933834 
L 119.411444 213.542272 
L 121.00573 216.714519 
L 122.600015 219.49468 
L 124.194301 221.922212 
L 125.788587 224.032469 
L 127.382872 225.857176 
L 128.977158 227.424851 
L 131.102872 229.159261 
L 133.228587 230.536084 
L 135.354301 231.602495 
L 137.480015 232.399791 
L 139.60573 232.964201 
L 141.731444 233.327547 
L 144.388587 233.541287 
L 147.04573 233.531708 
L 150.234301 233.281801 
L 153.954301 232.734212 
L 158.20573 231.861358 
L 163.520015 230.52519 
L 171.491444 228.258429 
L 187.96573 223.532491 
L 195.937158 221.501716 
L 203.377158 219.833399 
L 210.817158 218.4021 
L 218.257158 217.207955 
L 225.697158 216.239352 
L 233.668587 215.430115 
L 242.171444 214.796352 
L 251.20573 214.34337 
L 261.302872 214.057018 
L 272.994301 213.952508 
L 286.811444 214.060171 
L 304.348587 214.436224 
L 321.88573 214.967155 
L 321.88573 214.967155 
" clip-path="url(#p5b7684f1d1)" style="fill: none; stroke: #ff0000; stroke-width: 1.5; stroke-linecap: square"/>
   </g>
   <g id="line2d_73">
    <path d="M 90.578185 -1 
L 91.777158 20.527984 
L 93.371444 46.105951 
L 94.96573 68.6862 
L 96.560015 88.657746 
L 98.154301 106.350117 
L 99.748587 122.044069 
L 101.342872 135.980068 
L 102.937158 148.365054 
L 104.531444 159.377892 
L 106.12573 169.173809 
L 107.720015 177.888024 
L 109.314301 185.638745 
L 110.908587 192.529653 
L 112.502872 198.651976 
L 114.097158 204.086222 
L 115.691444 208.903638 
L 117.28573 213.167443 
L 118.880015 216.933873 
L 120.474301 220.253065 
L 122.068587 223.169817 
L 123.662872 225.724237 
L 125.257158 227.9523 
L 126.851444 229.886327 
L 128.44573 231.555406 
L 130.571444 233.413639 
L 132.697158 234.902351 
L 134.822872 236.069774 
L 136.948587 236.958129 
L 139.074301 237.604445 
L 141.200015 238.041235 
L 143.857158 238.335785 
L 146.514301 238.395765 
L 149.702872 238.215817 
L 152.891444 237.817297 
L 156.611444 237.141946 
L 161.394301 236.037603 
L 167.771444 234.317718 
L 191.154301 227.785617 
L 198.594301 226.031511 
L 206.034301 224.512261 
L 213.474301 223.233091 
L 220.914301 222.185503 
L 228.88573 221.300881 
L 236.857158 220.636496 
L 245.891444 220.113767 
L 255.457158 219.7831 
L 266.617158 219.628114 
L 279.371444 219.679804 
L 295.314301 219.979057 
L 317.102872 220.630029 
L 321.88573 220.793533 
L 321.88573 220.793533 
" clip-path="url(#p5b7684f1d1)" style="fill: none; stroke: #4169e1; stroke-width: 1.5; stroke-linecap: square"/>
   </g>
   <g id="line2d_74">
    <path d="M 83.201276 -1 
L 84.337158 28.569193 
L 85.931444 64.401317 
L 87.52573 94.699126 
L 89.120015 120.373515 
L 90.714301 142.16606 
L 92.308587 160.685171 
L 93.902872 176.432916 
L 95.497158 189.825467 
L 97.091444 201.209109 
L 98.68573 210.873061 
L 100.280015 219.059909 
L 101.874301 225.974139 
L 103.468587 231.789145 
L 105.062872 236.652914 
L 106.657158 240.692627 
L 108.251444 244.018312 
L 109.84573 246.725729 
L 111.440015 248.898611 
L 113.034301 250.610421 
L 114.628587 251.925709 
L 116.222872 252.901196 
L 117.817158 253.586645 
L 119.411444 254.025594 
L 121.00573 254.255993 
L 123.131444 254.295027 
L 125.257158 254.087139 
L 127.914301 253.560705 
L 131.102872 252.643863 
L 134.822872 251.309898 
L 139.60573 249.345123 
L 147.577158 245.795491 
L 161.92573 239.404303 
L 169.897158 236.113926 
L 176.80573 233.487267 
L 183.714301 231.093345 
L 190.622872 228.940777 
L 197.531444 227.02964 
L 204.440015 225.355263 
L 211.348587 223.910407 
L 218.257158 222.685941 
L 225.697158 221.600855 
L 233.137158 220.741201 
L 241.108587 220.047054 
L 249.611444 219.533961 
L 259.177158 219.192487 
L 269.80573 219.04562 
L 282.560015 219.10609 
L 298.502872 219.417915 
L 321.88573 220.121877 
L 321.88573 220.121877 
" clip-path="url(#p5b7684f1d1)" style="fill: none; stroke: #008000; stroke-width: 1.5; stroke-linecap: square"/>
   </g>
   <g id="line2d_75">
    <path d="M 90.568924 -1 
L 91.777158 20.700673 
L 93.371444 46.275675 
L 94.96573 68.854384 
L 96.560015 88.825599 
L 98.154301 106.518515 
L 99.748587 122.213519 
L 101.342872 136.15072 
L 102.937158 148.536759 
L 104.531444 159.550285 
L 106.12573 169.346395 
L 107.720015 178.060262 
L 109.314301 185.810118 
L 110.908587 192.699721 
L 112.502872 198.820407 
L 114.097158 204.252811 
L 115.691444 209.068309 
L 117.28573 213.330241 
L 118.880015 217.094944 
L 120.474301 220.412639 
L 122.068587 223.328185 
L 123.662872 225.881728 
L 125.257158 228.109258 
L 126.851444 230.043098 
L 128.44573 231.712318 
L 130.571444 233.571196 
L 132.697158 235.060991 
L 134.822872 236.229822 
L 136.948587 237.119796 
L 139.074301 237.767828 
L 141.200015 238.206328 
L 143.857158 238.50288 
L 146.514301 238.564595 
L 149.702872 238.386281 
L 152.891444 237.988881 
L 156.611444 237.314257 
L 161.394301 236.210228 
L 167.771444 234.490465 
L 191.154301 227.965858 
L 198.594301 226.21605 
L 206.034301 224.700924 
L 213.474301 223.425226 
L 220.914301 222.38025 
L 228.88573 221.497496 
L 237.388587 220.797115 
L 246.422872 220.288232 
L 256.520015 219.957432 
L 267.680015 219.823486 
L 280.96573 219.899751 
L 297.440015 220.233862 
L 320.291444 220.940234 
L 321.88573 220.995304 
L 321.88573 220.995304 
" clip-path="url(#p5b7684f1d1)" style="fill: none; stroke-dasharray: 5.55,2.4; stroke-dashoffset: 0; stroke: #000000; stroke-width: 1.5"/>
   </g>
   <g id="line2d_76">
    <path d="M 85.072449 -1 
L 86.462872 32.930782 
L 88.057158 66.571901 
L 89.651444 95.515322 
L 91.24573 120.467491 
L 92.840015 142.009954 
L 94.434301 160.625227 
L 96.028587 176.716519 
L 97.622872 190.622951 
L 99.217158 202.631436 
L 100.811444 212.986027 
L 102.40573 221.895362 
L 104.000015 229.538621 
L 105.594301 236.070346 
L 107.188587 241.62436 
L 108.782872 246.316974 
L 110.377158 250.249627 
L 111.971444 253.511079 
L 113.56573 256.179231 
L 115.160015 258.32265 
L 116.754301 260.001848 
L 118.348587 261.270367 
L 119.942872 262.17569 
L 121.537158 262.760021 
L 123.131444 263.060951 
L 124.72573 263.112024 
L 126.320015 262.943227 
L 127.914301 262.58141 
L 130.040015 261.839985 
L 132.16573 260.848325 
L 134.822872 259.322925 
L 137.480015 257.547512 
L 141.200015 254.756957 
L 145.982872 250.841392 
L 164.051444 235.728276 
L 169.36573 231.742576 
L 174.148587 228.442462 
L 178.931444 225.433466 
L 183.182872 223.008034 
L 187.434301 220.815064 
L 191.68573 218.848054 
L 196.468587 216.893171 
L 201.251444 215.195064 
L 206.034301 213.734657 
L 210.817158 212.491811 
L 216.131444 211.34125 
L 221.977158 210.324113 
L 227.822872 209.533676 
L 234.200015 208.892217 
L 241.108587 208.41495 
L 249.080015 208.092198 
L 258.114301 207.955931 
L 268.742872 208.024195 
L 282.028587 208.341621 
L 300.628587 209.027249 
L 321.88573 209.946378 
L 321.88573 209.946378 
" clip-path="url(#p5b7684f1d1)" style="fill: none; stroke: #000000; stroke-width: 1.5; stroke-linecap: square"/>
   </g>
   <g id="patch_3">
    <path d="M 70.78573 287.051515 
L 70.78573 26.483515 
" style="fill: none; stroke: #000000; stroke-width: 0.8; stroke-linejoin: miter; stroke-linecap: square"/>
   </g>
   <g id="patch_4">
    <path d="M 321.88573 287.051515 
L 321.88573 26.483515 
" style="fill: none; stroke: #000000; stroke-width: 0.8; stroke-linejoin: miter; stroke-linecap: square"/>
   </g>
   <g id="patch_5">
    <path d="M 70.78573 287.051515 
L 321.88573 287.051515 
" style="fill: none; stroke: #000000; stroke-width: 0.8; stroke-linejoin: miter; stroke-linecap: square"/>
   </g>
   <g id="patch_6">
    <path d="M 70.78573 26.483515 
L 321.88573 26.483515 
" style="fill: none; stroke: #000000; stroke-width: 0.8; stroke-linejoin: miter; stroke-linecap: square"/>
   </g>
   <g id="text_15">
    <!-- HeHe$^{2+}$ -->
    <g transform="translate(167.281049 20.483515) scale(0.192 -0.192)">
     <defs>
      <path id="CMR17-2b" d="M 2413 1472 
L 4109 1472 
C 4198 1472 4307 1472 4307 1580 
C 4307 1695 4205 1695 4109 1695 
L 2413 1695 
L 2413 3386 
C 2413 3475 2413 3584 2304 3584 
C 2189 3584 2189 3482 2189 3386 
L 2189 1695 
L 493 1695 
C 403 1695 294 1695 294 1587 
C 294 1472 397 1472 493 1472 
L 2189 1472 
L 2189 -218 
C 2189 -307 2189 -416 2298 -416 
C 2413 -416 2413 -314 2413 -218 
L 2413 1472 
z
" transform="scale(0.015625)"/>
     </defs>
     <use xlink:href="#CMSS17-48" transform="scale(0.996264)"/>
     <use xlink:href="#CMSS17-65" transform="translate(66.061519 0) scale(0.996264)"/>
     <use xlink:href="#CMSS17-48" transform="translate(107.700341 0) scale(0.996264)"/>
     <use xlink:href="#CMSS17-65" transform="translate(173.76186 0) scale(0.996264)"/>
     <use xlink:href="#CMR17-32" transform="translate(215.400682 36.153639) scale(0.697382)"/>
     <use xlink:href="#CMR17-2b" transform="translate(247.383864 36.153639) scale(0.697382)"/>
    </g>
   </g>
   <g id="legend_1">
    <g id="patch_7">
     <path d="M 210.927124 123.398211 
L 313.48573 123.398211 
Q 315.88573 123.398211 315.88573 120.998211 
L 315.88573 34.883515 
Q 315.88573 32.483515 313.48573 32.483515 
L 210.927124 32.483515 
Q 208.527124 32.483515 208.527124 34.883515 
L 208.527124 120.998211 
Q 208.527124 123.398211 210.927124 123.398211 
z
" style="fill: #ffffff; opacity: 0.8; stroke: #cccccc; stroke-linejoin: miter"/>
    </g>
    <g id="line2d_77">
     <path d="M 213.327124 42.049891 
L 225.327124 42.049891 
L 237.327124 42.049891 
" style="fill: none; stroke: #ff0000; stroke-width: 1.5; stroke-linecap: square"/>
    </g>
    <g id="text_16">
     <!-- HF/STO-3G -->
     <g transform="translate(246.927124 46.249891) scale(0.12 -0.12)">
      <defs>
       <path id="CMSS17-46" d="M 2918 1984 
L 2918 2373 
L 1101 2373 
L 1101 3968 
L 1882 3968 
C 1958 3968 2035 3968 2112 3968 
L 3168 3968 
L 3168 4375 
L 563 4375 
L 563 -32 
L 1101 -32 
L 1101 1984 
L 2918 1984 
z
" transform="scale(0.015625)"/>
       <path id="CMSS17-2f" d="M 2637 4545 
C 2669 4627 2669 4640 2669 4653 
C 2669 4729 2611 4768 2560 4768 
C 2483 4768 2458 4717 2432 4640 
L 365 -1377 
C 333 -1460 333 -1473 333 -1486 
C 333 -1562 390 -1600 442 -1600 
C 518 -1600 544 -1549 570 -1473 
L 2637 4545 
z
" transform="scale(0.015625)"/>
       <path id="CMSS17-53" d="M 2797 4169 
C 2515 4334 2208 4480 1690 4480 
C 864 4480 333 3879 333 3266 
C 333 3025 403 2753 653 2475 
C 902 2196 1184 2121 1542 2033 
C 1690 1994 1939 1924 1984 1906 
C 2342 1767 2515 1444 2515 1140 
C 2515 742 2202 318 1645 318 
C 1453 318 890 318 358 819 
L 269 318 
C 794 -64 1363 -128 1651 -128 
C 2438 -128 3002 488 3002 1186 
C 3002 1440 2925 1763 2656 2061 
C 2394 2347 2163 2410 1638 2549 
C 1338 2626 1146 2677 986 2873 
C 877 3013 819 3146 819 3317 
C 819 3673 1126 4060 1690 4060 
C 1971 4060 2336 4002 2707 3660 
L 2797 4169 
z
" transform="scale(0.015625)"/>
       <path id="CMSS17-54" d="M 2317 3968 
L 2848 3968 
C 2925 3968 3002 3968 3078 3968 
L 3878 3968 
L 3878 4376 
L 218 4376 
L 218 3968 
L 1018 3968 
C 1094 3968 1171 3968 1248 3968 
L 1779 3968 
L 1779 -32 
L 2317 -32 
L 2317 3968 
z
" transform="scale(0.015625)"/>
       <path id="CMSS17-4f" d="M 4096 2178 
C 4096 3503 3219 4497 2214 4497 
C 1210 4497 333 3497 333 2178 
C 333 847 1222 -128 2214 -128 
C 3206 -128 4096 847 4096 2178 
z
M 2214 273 
C 1510 273 870 1057 870 2261 
C 870 3433 1549 4096 2214 4096 
C 2880 4096 3558 3433 3558 2261 
C 3558 1051 2912 273 2214 273 
z
" transform="scale(0.015625)"/>
       <path id="CMSS17-2d" d="M 1664 1216 
L 1664 1585 
L 64 1585 
L 64 1216 
L 1664 1216 
z
" transform="scale(0.015625)"/>
       <path id="CMSS17-33" d="M 1005 2025 
L 1440 2025 
C 2042 2025 2214 1507 2214 1146 
C 2214 653 1933 267 1472 267 
C 1114 267 608 444 320 912 
C 275 691 275 678 250 526 
C 550 88 1037 -128 1485 -128 
C 2214 -128 2752 473 2752 1138 
C 2752 1638 2400 2057 1920 2215 
C 2304 2424 2586 2816 2586 3273 
C 2586 3805 2093 4229 1491 4229 
C 941 4229 512 3892 333 3530 
C 378 3468 493 3284 550 3189 
C 691 3562 1056 3840 1485 3840 
C 1843 3840 2080 3607 2080 3271 
C 2080 2923 1856 2543 1478 2455 
C 1453 2455 1056 2417 1005 2411 
L 1005 2025 
z
" transform="scale(0.015625)"/>
       <path id="CMSS17-47" d="M 3610 1856 
L 2336 1856 
L 2336 1461 
L 3123 1461 
L 3123 471 
C 2874 401 2618 350 2362 350 
C 1466 350 934 1301 934 2200 
C 934 3095 1491 4032 2362 4032 
C 2854 4032 3130 3881 3469 3627 
L 3552 4134 
C 3130 4351 2867 4440 2387 4440 
C 1146 4440 397 3324 397 2182 
C 397 1090 1152 -64 2349 -64 
C 2797 -64 3213 51 3610 248 
L 3610 1856 
z
" transform="scale(0.015625)"/>
      </defs>
      <use xlink:href="#CMSS17-48" transform="scale(0.996264)"/>
      <use xlink:href="#CMSS17-46" transform="translate(66.061519 0) scale(0.996264)"/>
      <use xlink:href="#CMSS17-2f" transform="translate(119.351078 0) scale(0.996264)"/>
      <use xlink:href="#CMSS17-53" transform="translate(166.194702 0) scale(0.996264)"/>
      <use xlink:href="#CMSS17-54" transform="translate(218.243218 0) scale(0.996264)"/>
      <use xlink:href="#CMSS17-4f" transform="translate(282.062672 0) scale(0.996264)"/>
      <use xlink:href="#CMSS17-2d" transform="translate(351.086927 0) scale(0.996264)"/>
      <use xlink:href="#CMSS17-33" transform="translate(382.31604 0) scale(0.996264)"/>
      <use xlink:href="#CMSS17-47" transform="translate(429.159664 0) scale(0.996264)"/>
     </g>
    </g>
    <g id="line2d_78">
     <path d="M 213.327124 60.005059 
L 225.327124 60.005059 
L 237.327124 60.005059 
" style="fill: none; stroke: #4169e1; stroke-width: 1.5; stroke-linecap: square"/>
    </g>
    <g id="text_17">
     <!-- HF/STO-6G -->
     <g transform="translate(246.927124 64.205059) scale(0.12 -0.12)">
      <defs>
       <path id="CMSS17-36" d="M 2496 4101 
C 2227 4210 2035 4229 1856 4229 
C 1024 4229 250 3368 250 2006 
C 250 265 986 -128 1510 -128 
C 1798 -128 2086 -39 2362 280 
C 2643 617 2752 898 2752 1389 
C 2752 2179 2362 2880 1779 2880 
C 1357 2880 992 2657 768 2376 
C 832 3258 1254 3840 1862 3840 
C 2029 3840 2246 3816 2496 3710 
L 2496 4101 
z
M 774 1369 
C 774 1420 774 1452 781 1548 
C 781 2045 1069 2491 1536 2491 
C 1837 2491 1990 2332 2106 2135 
C 2240 1886 2246 1650 2246 1388 
C 2246 1140 2246 891 2099 637 
C 1978 439 1818 267 1510 267 
C 902 267 800 1114 774 1369 
z
" transform="scale(0.015625)"/>
      </defs>
      <use xlink:href="#CMSS17-48" transform="scale(0.996264)"/>
      <use xlink:href="#CMSS17-46" transform="translate(66.061519 0) scale(0.996264)"/>
      <use xlink:href="#CMSS17-2f" transform="translate(119.351078 0) scale(0.996264)"/>
      <use xlink:href="#CMSS17-53" transform="translate(166.194702 0) scale(0.996264)"/>
      <use xlink:href="#CMSS17-54" transform="translate(218.243218 0) scale(0.996264)"/>
      <use xlink:href="#CMSS17-4f" transform="translate(282.062672 0) scale(0.996264)"/>
      <use xlink:href="#CMSS17-2d" transform="translate(351.086927 0) scale(0.996264)"/>
      <use xlink:href="#CMSS17-36" transform="translate(382.31604 0) scale(0.996264)"/>
      <use xlink:href="#CMSS17-47" transform="translate(429.159664 0) scale(0.996264)"/>
     </g>
    </g>
    <g id="line2d_79">
     <path d="M 213.327124 77.960227 
L 225.327124 77.960227 
L 237.327124 77.960227 
" style="fill: none; stroke: #008000; stroke-width: 1.5; stroke-linecap: square"/>
    </g>
    <g id="text_18">
     <!-- HF/3-21G -->
     <g transform="translate(246.927124 82.160227) scale(0.12 -0.12)">
      <defs>
       <path id="CMSS17-32" d="M 1651 1357 
C 1830 1541 2099 1764 2285 1987 
C 2464 2204 2701 2511 2701 2957 
C 2701 3657 2227 4288 1421 4288 
C 787 4288 422 3893 250 3274 
L 499 2929 
C 640 3510 838 3880 1338 3880 
C 1888 3880 2195 3433 2195 2942 
C 2195 2355 1747 1901 1408 1563 
C 1030 1187 659 804 301 408 
L 301 0 
L 2701 0 
L 2701 433 
L 1613 433 
C 1536 433 1459 433 1382 433 
L 742 433 
L 742 439 
L 1651 1357 
z
" transform="scale(0.015625)"/>
       <path id="CMSS17-31" d="M 1818 4288 
L 1696 4288 
C 1350 3940 947 3890 538 3890 
L 538 3520 
C 723 3520 1024 3520 1325 3667 
L 1325 369 
L 570 369 
L 570 0 
L 2573 0 
L 2573 369 
L 1818 369 
L 1818 4288 
z
" transform="scale(0.015625)"/>
      </defs>
      <use xlink:href="#CMSS17-48" transform="scale(0.996264)"/>
      <use xlink:href="#CMSS17-46" transform="translate(66.061519 0) scale(0.996264)"/>
      <use xlink:href="#CMSS17-2f" transform="translate(119.351078 0) scale(0.996264)"/>
      <use xlink:href="#CMSS17-33" transform="translate(166.194702 0) scale(0.996264)"/>
      <use xlink:href="#CMSS17-2d" transform="translate(213.038326 0) scale(0.996264)"/>
      <use xlink:href="#CMSS17-32" transform="translate(244.267438 0) scale(0.996264)"/>
      <use xlink:href="#CMSS17-31" transform="translate(291.111062 0) scale(0.996264)"/>
      <use xlink:href="#CMSS17-47" transform="translate(337.954685 0) scale(0.996264)"/>
     </g>
    </g>
    <g id="line2d_80">
     <path d="M 213.327124 95.349019 
L 225.327124 95.349019 
L 237.327124 95.349019 
" style="fill: none; stroke-dasharray: 5.55,2.4; stroke-dashoffset: 0; stroke: #000000; stroke-width: 1.5"/>
    </g>
    <g id="text_19">
     <!-- Standard 1s -->
     <g transform="translate(246.927124 99.549019) scale(0.12 -0.12)">
      <use xlink:href="#CMSS17-53" transform="scale(0.996264)"/>
      <use xlink:href="#CMSS17-74" transform="translate(52.048516 0) scale(0.996264)"/>
      <use xlink:href="#CMSS17-61" transform="translate(85.880083 0) scale(0.996264)"/>
      <use xlink:href="#CMSS17-6e" transform="translate(130.802003 0) scale(0.996264)"/>
      <use xlink:href="#CMSS17-64" transform="translate(179.006947 0) scale(0.996264)"/>
      <use xlink:href="#CMSS17-61" transform="translate(227.21189 0) scale(0.996264)"/>
      <use xlink:href="#CMSS17-72" transform="translate(269.531356 0) scale(0.996264)"/>
      <use xlink:href="#CMSS17-64" transform="translate(301.441129 0) scale(0.996264)"/>
      <use xlink:href="#CMSS17-31" transform="translate(380.875185 0) scale(0.996264)"/>
      <use xlink:href="#CMSS17-73" transform="translate(427.718808 0) scale(0.996264)"/>
     </g>
    </g>
    <g id="line2d_81">
     <path d="M 213.327124 112.073615 
L 225.327124 112.073615 
L 237.327124 112.073615 
" style="fill: none; stroke: #000000; stroke-width: 1.5; stroke-linecap: square"/>
    </g>
    <g id="text_20">
     <!-- Optimized 1s -->
     <g transform="translate(246.927124 116.273615) scale(0.12 -0.12)">
      <defs>
       <path id="CMSS17-70" d="M 966 333 
C 1178 129 1466 -5 1773 -5 
C 2368 -5 2880 603 2880 1412 
C 2880 2159 2496 2816 1946 2816 
C 1626 2816 1242 2702 954 2472 
L 954 2765 
L 480 2765 
L 480 -1216 
L 966 -1216 
L 966 333 
z
M 966 2100 
C 1018 2176 1235 2415 1587 2415 
C 2035 2415 2394 1960 2394 1412 
C 2394 787 1958 384 1530 384 
C 1402 384 1267 415 1139 523 
C 966 674 966 768 966 857 
L 966 2100 
z
" transform="scale(0.015625)"/>
       <path id="CMSS17-6d" d="M 4288 1877 
C 4288 2308 4179 2816 3462 2816 
C 2982 2816 2694 2516 2566 2331 
C 2451 2670 2182 2816 1798 2816 
C 1363 2816 1088 2568 941 2389 
L 941 2758 
L 474 2758 
L 474 0 
L 960 0 
L 960 1559 
C 960 1939 1101 2428 1555 2428 
C 2138 2428 2138 2016 2138 1829 
L 2138 0 
L 2624 0 
L 2624 1559 
C 2624 1939 2765 2428 3219 2428 
C 3802 2428 3802 2016 3802 1829 
L 3802 0 
L 4288 0 
L 4288 1877 
z
" transform="scale(0.015625)"/>
       <path id="CMSS17-7a" d="M 2400 2502 
L 2400 2750 
L 250 2750 
L 250 2368 
L 1069 2368 
C 1146 2368 1222 2368 1299 2368 
L 1747 2368 
L 166 261 
L 166 0 
L 2419 0 
L 2419 395 
L 1549 395 
C 1472 395 1395 395 1318 395 
L 826 395 
L 2400 2502 
z
" transform="scale(0.015625)"/>
      </defs>
      <use xlink:href="#CMSS17-4f" transform="scale(0.996264)"/>
      <use xlink:href="#CMSS17-70" transform="translate(69.024255 0) scale(0.996264)"/>
      <use xlink:href="#CMSS17-74" transform="translate(117.229198 0) scale(0.996264)"/>
      <use xlink:href="#CMSS17-69" transform="translate(151.060765 0) scale(0.996264)"/>
      <use xlink:href="#CMSS17-6d" transform="translate(173.241488 0) scale(0.996264)"/>
      <use xlink:href="#CMSS17-69" transform="translate(247.470743 0) scale(0.996264)"/>
      <use xlink:href="#CMSS17-7a" transform="translate(269.651466 0) scale(0.996264)"/>
      <use xlink:href="#CMSS17-65" transform="translate(310.329337 0) scale(0.996264)"/>
      <use xlink:href="#CMSS17-64" transform="translate(351.96816 0) scale(0.996264)"/>
      <use xlink:href="#CMSS17-31" transform="translate(431.402215 0) scale(0.996264)"/>
      <use xlink:href="#CMSS17-73" transform="translate(478.245839 0) scale(0.996264)"/>
     </g>
    </g>
   </g>
  </g>
 </g>
 <defs>
  <clipPath id="p5b7684f1d1">
   <rect x="70.78573" y="26.483515" width="251.1" height="260.568"/>
  </clipPath>
 </defs>
</svg>
